<svg width="24" height="24" viewBox="0 0 24 24" fill="none" xmlns="http://www.w3.org/2000/svg">
<path fill-rule="evenodd" clip-rule="evenodd" d="M14.455 2.474C13.5126 2.0954 12.4954 1.93987 11.4829 2.01959C10.4704 2.0993 9.49007 2.41209 8.61853 2.9335C7.74698 3.45492 7.00783 4.17084 6.45885 5.02529C5.90988 5.87975 5.56595 6.84959 5.45396 7.859L5.20196 10.125L5.19596 10.179C5.08315 11.1623 4.76311 12.1105 4.25696 12.961L4.22896 13.008L3.65096 13.971L3.62696 14.011C3.38496 14.414 3.16696 14.779 3.02096 15.088C2.87296 15.402 2.71396 15.828 2.79096 16.312C2.86607 16.7894 3.11153 17.2235 3.48196 17.534C3.85796 17.848 4.30396 17.931 4.64996 17.966C4.98996 18 5.41596 18 5.88496 18H18.115C18.584 18 19.009 18 19.35 17.966C19.695 17.931 20.142 17.848 20.517 17.534C20.8877 17.2237 21.1336 16.7896 21.209 16.312C21.286 15.829 21.127 15.402 20.979 15.088C20.833 14.778 20.615 14.414 20.373 14.011L20.349 13.971L19.771 13.008L19.743 12.961C19.3649 12.326 19.0899 11.6351 18.928 10.914C18.2508 11.0417 17.5546 11.0281 16.883 10.874C17.0676 11.9723 17.4545 13.0269 18.024 13.984L18.056 14.037L18.634 15C18.907 15.456 19.072 15.733 19.17 15.94L19.184 15.972L19.149 15.976C18.922 15.999 18.599 16 18.068 16H5.93196C5.40096 16 5.07796 15.999 4.84996 15.976L4.81596 15.972L4.82996 15.94C4.92796 15.733 5.09296 15.456 5.36596 15L5.94396 14.037L5.97596 13.984C6.62665 12.8904 7.03803 11.6713 7.18296 10.407L7.18996 10.347L7.44196 8.08C7.5162 7.41042 7.73706 6.76542 8.08882 6.19086C8.44058 5.6163 8.91461 5.12629 9.4772 4.75569C10.0398 4.38508 10.6771 4.14298 11.3439 4.04659C12.0106 3.95021 12.6904 4.0019 13.335 4.198C13.5848 3.55196 13.9662 2.96489 14.455 2.474ZM16.982 4.278C16.6203 4.4918 16.3351 4.81408 16.1669 5.19911C15.9987 5.58414 15.956 6.01236 16.045 6.423C16.165 6.64834 16.2666 6.884 16.35 7.13C16.5873 7.4769 16.9278 7.74022 17.3233 7.88257C17.7187 8.02492 18.149 8.03907 18.553 7.923L18.546 7.859C18.4005 6.53417 17.855 5.28508 16.982 4.278Z" fill="white"/>
<path d="M9.10193 17.665C9.27293 18.622 9.64993 19.467 10.1739 20.07C10.6979 20.673 11.3399 21 11.9999 21C12.6599 21 13.3019 20.673 13.8259 20.07C14.3499 19.467 14.7259 18.622 14.8979 17.665" stroke="white" stroke-width="2" stroke-linecap="round"/>
<path d="M18 8.5C19.3807 8.5 20.5 7.38071 20.5 6C20.5 4.61929 19.3807 3.5 18 3.5C16.6193 3.5 15.5 4.61929 15.5 6C15.5 7.38071 16.6193 8.5 18 8.5Z" fill="white" stroke="white"/>
</svg>
