<svg width="24" height="24" viewBox="0 0 24 24" fill="none" xmlns="http://www.w3.org/2000/svg">
<path d="M16.959 5C17.619 5.87 18 6.898 18 8C18 9.102 17.619 10.13 16.959 11M7.04 5C6.381 5.87 6 6.898 6 8C6 9.102 6.381 10.13 7.041 11M20.316 3C21.38 4.43 22 6.15 22 8C22 9.85 21.38 11.57 20.316 13M3.684 3C2.62 4.43 2 6.15 2 8C2 9.85 2.62 11.57 3.684 13M11 10L7 21M17 21L13 10M8.5 17H15.5M14 8C14 8.53043 13.7893 9.03914 13.4142 9.41421C13.0391 9.78929 12.5304 10 12 10C11.4696 10 10.9609 9.78929 10.5858 9.41421C10.2107 9.03914 10 8.53043 10 8C10 7.46957 10.2107 6.96086 10.5858 6.58579C10.9609 6.21071 11.4696 6 12 6C12.5304 6 13.0391 6.21071 13.4142 6.58579C13.7893 6.96086 14 7.46957 14 8Z" stroke="white" stroke-width="1.5" stroke-linecap="round" stroke-linejoin="round"/>
</svg>
