<svg width="736" height="920" viewBox="0 0 736 920" fill="none" xmlns="http://www.w3.org/2000/svg">
<path d="M414 551.99C259.45 551.99 208.85 614.086 192.29 655.02C241.507 676.179 276.005 724.936 276.005 781.97C276.005 818.567 261.467 853.665 235.589 879.544C209.71 905.422 174.612 919.96 138.015 919.96C101.418 919.96 66.3194 905.422 40.4412 879.544C14.5631 853.665 0.0249023 818.567 0.0249023 781.97C0.0249023 721.713 38.2029 670.66 92.0199 651.79V268.17C38.2029 249.311 0.0249023 198.254 0.0249023 137.99C0.0249023 101.393 14.5631 66.2945 40.4412 40.4163C66.3194 14.5382 101.418 0 138.015 0C174.612 0 209.71 14.5382 235.589 40.4163C261.467 66.2945 276.005 101.393 276.005 137.99C276.005 198.247 237.827 249.3 184.01 268.17V511.49C224.488 481.592 283.364 459.973 368 459.973C490.81 459.973 531.75 398.337 545.08 357.403C495.403 336.704 459.985 287.487 459.985 229.993C459.985 193.396 474.523 158.297 500.401 132.419C526.279 106.541 561.378 92.003 597.975 92.003C634.572 92.003 669.67 106.541 695.549 132.419C721.427 158.297 735.965 193.396 735.965 229.993C735.965 291.629 695.487 344.983 639.83 361.543C627.871 427.319 583.253 551.973 413.98 551.973M138 735.963C125.801 735.963 114.101 740.809 105.475 749.435C96.849 758.061 92.0029 769.761 92.0029 781.96C92.0029 794.159 96.849 805.859 105.475 814.485C114.101 823.111 125.801 827.957 138 827.957C150.199 827.957 161.899 823.111 170.525 814.485C179.151 805.859 183.997 794.159 183.997 781.96C183.997 769.761 179.151 758.061 170.525 749.435C161.899 740.809 150.199 735.963 138 735.963ZM138 92.003C125.801 92.003 114.101 96.8491 105.475 105.475C96.849 114.101 92.0029 125.801 92.0029 138C92.0029 144.04 93.1927 150.022 95.5042 155.602C97.8158 161.183 101.204 166.254 105.475 170.525C114.101 179.151 125.801 183.997 138 183.997C144.04 183.997 150.022 182.807 155.602 180.496C161.183 178.184 166.253 174.796 170.525 170.525C174.796 166.254 178.184 161.183 180.496 155.602C182.807 150.022 183.997 144.04 183.997 138C183.997 131.96 182.807 125.978 180.496 120.398C178.184 114.817 174.796 109.746 170.525 105.475C166.253 101.204 161.183 97.8159 155.602 95.5043C150.022 93.1928 144.04 92.003 138 92.003ZM597.97 183.998C585.771 183.998 574.071 188.844 565.445 197.47C556.819 206.096 551.973 217.796 551.973 229.995C551.973 242.194 556.819 253.894 565.445 262.52C574.071 271.146 585.771 275.992 597.97 275.992C610.169 275.992 621.869 271.146 630.495 262.52C639.121 253.894 643.967 242.194 643.967 229.995C643.967 217.796 639.121 206.096 630.495 197.47C621.869 188.844 610.169 183.998 597.97 183.998Z" fill="white"/>
</svg>
