<svg width="44" height="44" viewBox="0 0 44 44" fill="none" xmlns="http://www.w3.org/2000/svg">
<path d="M21.5 0C18.6766 0 15.8808 0.556667 13.2723 1.63822C10.6638 2.71977 8.29366 4.30502 6.2972 6.30346C2.26517 10.3395 0 15.8135 0 21.5214C0 31.0338 6.1705 39.1043 14.706 41.9667C15.781 42.1388 16.125 41.4717 16.125 40.8906V37.2535C10.1695 38.5448 8.901 34.3696 8.901 34.3696C7.912 31.8731 6.5145 31.206 6.5145 31.206C4.558 29.8717 6.665 29.9147 6.665 29.9147C8.815 30.0653 9.9545 32.1314 9.9545 32.1314C11.825 35.4026 14.9855 34.4342 16.211 33.9177C16.4045 32.5188 16.9635 31.5718 17.5655 31.0338C12.7925 30.4958 7.783 28.6449 7.783 20.4453C7.783 18.0564 8.6 16.141 9.9975 14.613C9.7825 14.075 9.03 11.8368 10.2125 8.93137C10.2125 8.93137 12.0185 8.35029 16.125 11.1265C17.8235 10.6531 19.6725 10.4163 21.5 10.4163C23.3275 10.4163 25.1765 10.6531 26.875 11.1265C30.9815 8.35029 32.7875 8.93137 32.7875 8.93137C33.97 11.8368 33.2175 14.075 33.0025 14.613C34.4 16.141 35.217 18.0564 35.217 20.4453C35.217 28.6665 30.186 30.4743 25.3915 31.0123C26.1655 31.6794 26.875 32.9923 26.875 34.9937V40.8906C26.875 41.4717 27.219 42.1604 28.3155 41.9667C36.851 39.0828 43 31.0338 43 21.5214C43 18.6951 42.4439 15.8966 41.3634 13.2855C40.2829 10.6744 38.6993 8.30191 36.7028 6.30346C34.7063 4.30502 32.3362 2.71977 29.7277 1.63822C27.1192 0.556667 24.3234 0 21.5 0Z" fill="white"/>
</svg>
