<svg width="20" height="20" viewBox="0 0 20 20" fill="none" xmlns="http://www.w3.org/2000/svg">
<g clip-path="url(#clip0_37_224)">
<path d="M15.5556 4.44444H7.7778C7.48311 4.44444 7.2005 4.56151 6.99212 4.76988C6.78375 4.97825 6.66669 5.26087 6.66669 5.55555V6.66666H7.7778V5.55555H15.5556V11.1111H14.4445V12.2222H15.5556C15.8503 12.2222 16.1329 12.1052 16.3413 11.8968C16.5496 11.6884 16.6667 11.4058 16.6667 11.1111V5.55555C16.6667 5.26087 16.5496 4.97825 16.3413 4.76988C16.1329 4.56151 15.8503 4.44444 15.5556 4.44444Z" fill="#DEDEDE"/>
<path d="M12.2222 7.77778H4.44442C4.14974 7.77778 3.86712 7.89484 3.65875 8.10322C3.45038 8.31159 3.33331 8.5942 3.33331 8.88889V14.4444C3.33331 14.7391 3.45038 15.0217 3.65875 15.2301C3.86712 15.4385 4.14974 15.5556 4.44442 15.5556H12.2222C12.5169 15.5556 12.7995 15.4385 13.0079 15.2301C13.2163 15.0217 13.3333 14.7391 13.3333 14.4444V8.88889C13.3333 8.5942 13.2163 8.31159 13.0079 8.10322C12.7995 7.89484 12.5169 7.77778 12.2222 7.77778ZM4.44442 14.4444V8.88889H12.2222V14.4444H4.44442Z" fill="#DEDEDE"/>
</g>
<defs>
<clipPath id="clip0_37_224">
<rect width="20" height="20" fill="white"/>
</clipPath>
</defs>
</svg>
