<svg width="800" height="800" viewBox="0 0 800 800" fill="none" xmlns="http://www.w3.org/2000/svg">
<path fill-rule="evenodd" clip-rule="evenodd" d="M403.24 84.3464C409.71 95.4967 409.173 109.379 401.857 119.993C379.66 152.198 366.667 191.198 366.667 233.334C366.667 343.79 456.21 433.333 566.667 433.333C608.803 433.333 647.803 420.34 680.007 398.143C690.623 390.83 704.503 390.29 715.653 396.76C726.803 403.23 733.223 415.55 732.14 428.397C717.71 599.217 574.533 733.333 400 733.333C215.905 733.333 66.6666 584.097 66.6666 400C66.6666 225.466 200.784 82.2914 371.603 67.8617C384.45 66.7767 396.77 73.196 403.24 84.3464ZM314.141 147.451C208.998 183.184 133.333 282.769 133.333 400C133.333 547.277 252.724 666.667 400 666.667C517.233 666.667 616.817 591.003 652.55 485.86C625.587 495.027 596.693 500 566.667 500C419.39 500 300 380.61 300 233.334C300 203.307 304.973 174.413 314.141 147.451Z" fill="white"/>
</svg>
