<svg width="22" height="22" viewBox="0 0 22 22" fill="none" xmlns="http://www.w3.org/2000/svg">
<path d="M20.5 8C19.8424 5.99932 18.57 4.25731 16.8641 3.02234C15.1582 1.78738 13.106 1.1225 11 1.1225C8.89402 1.1225 6.84179 1.78738 5.13591 3.02234C3.43004 4.25731 2.15759 5.99932 1.5 8M1 4V8H5M17 14H21V18M1.5 14C2.15759 16.0007 3.43004 17.7427 5.13591 18.9777C6.84179 20.2126 8.89402 20.8775 11 20.8775C13.106 20.8775 15.1582 20.2126 16.8641 18.9777C18.57 17.7427 19.8424 16.0007 20.5 14" stroke="white" stroke-width="2" stroke-linecap="round" stroke-linejoin="round"/>
</svg>
