<svg width="24" height="24" viewBox="0 0 24 24" fill="none" xmlns="http://www.w3.org/2000/svg">
<path fill-rule="evenodd" clip-rule="evenodd" d="M13.735 1.694L15.178 1L23.207 7.328V8.716L15.178 14.788L13.735 14.094V11.318H13.145C9.08504 11.298 6.43504 11.422 2.53504 16.481L1.00104 15.988C0.986338 15.2274 1.07755 14.4685 1.27204 13.733C1.70237 11.0649 3.09729 8.64762 5.19204 6.94C7.30516 5.21667 9.96849 4.31245 12.694 4.393H13.734L13.735 1.694ZM15.539 9.611V12.387L21.215 8.106L15.567 3.561V6.225H12.707C11.4327 6.16298 10.1592 6.36384 8.96577 6.81509C7.77236 7.26634 6.68456 7.95833 5.77004 8.848C4.66232 10.0183 3.84054 11.4291 3.36904 12.97C6.72004 9.757 9.55904 9.611 13.167 9.611H15.539ZM7.89204 15.507C8.36224 15.1795 8.89304 14.949 9.45337 14.8291C10.0137 14.7091 10.5923 14.7021 11.1554 14.8085C11.7185 14.9148 12.2547 15.1324 12.7327 15.4484C13.2106 15.7645 13.6208 16.1727 13.9392 16.6492C14.2575 17.1256 14.4776 17.6608 14.5867 18.2233C14.6958 18.7859 14.6916 19.3645 14.5743 19.9254C14.4571 20.4863 14.2292 21.0182 13.9039 21.49C13.5786 21.9618 13.1626 22.3639 12.68 22.673C11.7296 23.2817 10.5784 23.4933 9.47366 23.2624C8.36892 23.0315 7.39883 22.3765 6.77181 21.4381C6.1448 20.4996 5.9109 19.3527 6.12037 18.2437C6.32983 17.1347 6.96595 16.1521 7.89204 15.507ZM8.84704 21.235C9.12947 21.4263 9.44692 21.5599 9.78115 21.6281C10.1154 21.6962 10.4598 21.6977 10.7946 21.6323C11.1294 21.5669 11.4479 21.4359 11.7319 21.247C12.0159 21.0581 12.2598 20.8148 12.4495 20.5313C12.6391 20.2478 12.7709 19.9296 12.8371 19.5949C12.9034 19.2603 12.9028 18.9159 12.8355 18.5815C12.7682 18.2471 12.6354 17.9293 12.4449 17.6464C12.2543 17.3635 12.0097 17.121 11.725 16.933C11.1545 16.5561 10.458 16.4202 9.78765 16.5552C9.1173 16.6901 8.52761 17.0849 8.14739 17.6533C7.76717 18.2216 7.62734 18.9173 7.75843 19.5884C7.88953 20.2596 8.2809 20.8515 8.84704 21.235Z" fill="white"/>
</svg>
