<svg width="16" height="14" viewBox="0 0 16 14" fill="none" xmlns="http://www.w3.org/2000/svg">
<path fill-rule="evenodd" clip-rule="evenodd" d="M5.56 3.40298C5.83 3.71698 5.783 4.18698 5.545 4.52598C5.19036 5.03093 5.00005 5.63294 5 6.24998C5 6.89198 5.202 7.48698 5.545 7.97398C5.783 8.31298 5.829 8.78298 5.56 9.09698C5.29 9.41198 4.81 9.45098 4.545 9.13298C3.86837 8.32483 3.49835 7.30399 3.5 6.24998C3.5 5.15298 3.893 4.14798 4.545 3.36698C4.811 3.04898 5.29 3.08798 5.56 3.40298ZM10.44 3.40298C10.17 3.71698 10.217 4.18698 10.455 4.52598C10.799 5.01298 11 5.60798 11 6.24998C11 6.89198 10.799 7.48698 10.455 7.97398C10.217 8.31298 10.171 8.78298 10.44 9.09698C10.71 9.41198 11.19 9.45098 11.455 9.13298C12.1316 8.32483 12.5017 7.30399 12.5 6.24998C12.5017 5.19598 12.1316 4.17513 11.455 3.36698C11.19 3.04898 10.71 3.08798 10.44 3.40298ZM12.393 1.12498C12.123 1.43998 12.163 1.90998 12.443 2.21698C13.4468 3.32011 14.0021 4.75852 14 6.24998C14 7.80298 13.41 9.21798 12.442 10.283C12.164 10.59 12.123 11.06 12.392 11.375C12.662 11.689 13.139 11.728 13.425 11.428C14.7594 10.0347 15.5029 8.17917 15.5 6.24998C15.5 4.24198 14.71 2.41798 13.425 1.07198C13.139 0.771982 12.662 0.810982 12.393 1.12498ZM3.607 1.12498C3.337 0.810982 2.861 0.771982 2.575 1.07198C1.24154 2.46586 0.498128 4.32099 0.500004 6.24998C0.500004 8.25798 1.29 10.082 2.575 11.428C2.861 11.728 3.338 11.689 3.607 11.375C3.877 11.06 3.837 10.59 3.557 10.283C2.55323 9.17985 1.99791 7.74144 2 6.24998C2 4.69698 2.59 3.28198 3.558 2.21698C3.836 1.90998 3.876 1.43998 3.607 1.12498ZM8.75 7.54998C9.03597 7.38488 9.25946 7.13004 9.38582 6.82497C9.51219 6.5199 9.53435 6.18167 9.44889 5.86272C9.36343 5.54377 9.17511 5.26193 8.91315 5.06091C8.65118 4.8599 8.3302 4.75094 8 4.75094C7.6698 4.75094 7.34883 4.8599 7.08686 5.06091C6.82489 5.26193 6.63658 5.54377 6.55111 5.86272C6.46565 6.18167 6.48782 6.5199 6.61418 6.82497C6.74055 7.13004 6.96404 7.38488 7.25 7.54998V13.251C7.25 13.4499 7.32902 13.6407 7.46967 13.7813C7.61033 13.922 7.80109 14.001 8 14.001C8.19892 14.001 8.38968 13.922 8.53033 13.7813C8.67099 13.6407 8.75 13.4499 8.75 13.251V7.54998Z" fill="white"/>
</svg>
